<svg id="Layer_1" data-name="Layer 1" xmlns="http://www.w3.org/2000/svg" width="1023.81" height="612" viewBox="0 10.23 1023.81 612"><defs><style>.cls-1{fill:#AFC2D5;}.cls-2{fill:#fff;}</style></defs><title>Website design</title><path class="cls-1" d="M247.47,81.92c-126.25,0-228.59,102.34-228.59,228.59S121.22,539.1,247.47,539.1,476.06,436.76,476.06,310.51,373.72,81.92,247.47,81.92Z"/><path class="cls-2" d="M235.94,239.29H125.25V406.65h110v-59.3l-24.87-25,25.53-25.42ZM214.2,355.53v30H147V333.51h46.12Zm0-66.44-21.08,22.68H147V259.72H214.2Z"/><path class="cls-2" d="M347.46,348.22l.16,36.68H280.08V259.06h67.21V295.3H369V238.63H258.34V406H369V348Z"/><polygon class="cls-2" points="247.8 161.46 125.91 218.21 159.51 218.21 247.8 179.66 336.09 218.21 369.69 218.21 247.8 161.46"/><path class="cls-1" d="M555.58,212.81,571,228.34V253.5l-7.56,9.07,10.31,10.17v27.5l-15.4,15.4h-33V225.59h0V212.81Zm2.75,35.75v-15l-8-8H538v31.62H551ZM553.11,303l8-8v-16.5l-8.8-8.66H538V303Z"/><path class="cls-1" d="M626.67,212.67l15.26,103H629.28l-4-26.81H603.84l-4,26.81H587.21l12.65-90.47h0l1.49-12.51Zm-13.47,12.51-7.56,51.15H623.5l-7.7-51.15Z"/><path class="cls-1" d="M669.7,212.94v45.37h23.24V212.94h12.51V315.65H692.94V270.28H669.7v45.37H657.19V225.45l0-12.51Z"/><path class="cls-1" d="M553.88,348.88H545L537.29,357v62.55l7.82,8.78h8.64l8-8.78V408.15l12.48-.14V424.2l-15,16.6H539.62L524.8,424.2V352l15-15.64h19.48l15,15.64v15.5H561.7V357Z"/><path class="cls-1" d="M592.84,337.63h12.48v36.08l-1.92,43.08h.41L614,374.4l11.66-36.77H642.5V440.11H630V390.72l2.06-36.9h-.41l-9.47,35.8-16,50.48H592.84Z"/><path class="cls-1" d="M690.79,348.88h-8.92L674.19,357v62.55l7.82,8.78h8.64l8-8.78V408.15l12.48-.14V424.2l-15,16.6H676.52l-14.82-16.6V352l15-15.64h19.48l15,15.64v15.5H698.61V357Z"/><path class="cls-1" d="M721.38,348.47V337.22h48.84v11.25H752v91.64H739.49V348.47Z"/><path class="cls-1" d="M820.84,395.52H796v32.1h31.55v12.48h-44V337.36h42.12v12.48H796V383h24.83Z"/><path class="cls-1" d="M900.13,349.57l-12.35,82.58H872l-12.76-82.58h-1.51V440H845.25V337.36h24.83l5.76,40.19,3.7,37.86H880l3.57-37.31,5.76-40.74h24.83V440H901.64v-90.4Z"/><path class="cls-1" d="M962.27,348.88h-8.92L945.67,357v62.55l7.82,8.78h8.64l8-8.78V408.15l12.48-.14V424.2l-15,16.6H948l-14.82-16.6V352l15-15.64h19.48l15,15.64v15.5H970.09V357Z"/></svg>